<svg preserveAspectRatio="none" overflow="visible" style="display: block;" width="100" height="100" viewBox="0 0 100 100" fill="none" xmlns="http://www.w3.org/2000/svg">
<g id="Import">
<path id="Vector" fill-rule="evenodd" clip-rule="evenodd" d="M86.5 16.6666C87.0523 16.6666 87.5 17.1143 87.5 17.6666V86.5C87.5 87.0523 87.0523 87.5 86.5 87.5H13.5C12.9477 87.5 12.5 87.0523 12.5 86.5V34.3332C12.5 33.7809 12.9477 33.3332 13.5 33.3332H19.8334C20.3857 33.3332 20.8334 33.7809 20.8334 34.3332V78.1666C20.8334 78.7189 21.2811 79.1666 21.8334 79.1666H78.1668C78.7191 79.1666 79.1668 78.7189 79.1668 78.1666V26C79.1668 25.4477 78.7191 25 78.1668 25H63.5C62.9477 25 62.5 24.5523 62.5 24V17.6666C62.5 17.1143 62.9477 16.6666 63.5 16.6666H86.5ZM33.3334 16.6666C44.5365 16.6666 53.6742 25.5096 54.1475 36.5963L54.1668 37.5L54.1666 50.0246C54.1666 50.9155 55.2437 51.3617 55.8737 50.7318L63.0134 43.5938C63.4039 43.2034 64.037 43.2034 64.4275 43.5939L68.906 48.0724C69.2965 48.4629 69.2965 49.0961 68.906 49.4866L50.7071 67.6855C50.3166 68.076 49.6834 68.076 49.2929 67.6855L31.0942 49.4864C30.7037 49.0959 30.7037 48.4627 31.0942 48.0722L35.5727 43.5937C35.9632 43.2033 36.5963 43.2032 36.9868 43.5937L44.1264 50.7316C44.7564 51.3615 45.8334 50.9153 45.8334 50.0245V37.5C45.8334 30.843 40.6295 25.4014 34.0678 25.0211L33.3334 25H9.3334C8.78111 25 8.3334 24.5523 8.3334 24V17.6666C8.3334 17.1143 8.78111 16.6666 9.3334 16.6666H33.3334Z" fill="url(#paint0_linear_0_30)"/>
</g>
<defs>
<linearGradient id="paint0_linear_0_30" x1="15.0004" y1="-9.00039" x2="71.0004" y2="104" gradientUnits="userSpaceOnUse">
<stop stop-color="#7B7B8C"/>
<stop offset="1" stop-color="#222226"/>
</linearGradient>
</defs>
</svg>
