<svg preserveAspectRatio="none" overflow="visible" style="display: block;" width="32.8333" height="41.5" viewBox="0 0 32.8333 41.5" fill="none" xmlns="http://www.w3.org/2000/svg">
<g id="Group" filter="url(#filter0_d_0_32)">
<path id="Vector" d="M6.08333 30.75C5.19928 30.75 4.35143 30.3988 3.72631 29.7737C3.10119 29.1486 2.75 28.3007 2.75 27.4167V0.75H17.75L26.0833 9.08333V27.4167C26.0833 28.3007 25.7321 29.1486 25.107 29.7737C24.4819 30.3988 23.6341 30.75 22.75 30.75H6.08333Z" fill="url(#paint0_linear_0_32)" stroke="#0F0F46" stroke-width="1.5" stroke-linecap="round" stroke-linejoin="round"/>
<g id="Vector_2">
<path d="M16.0833 0.75V10.75H26.0833" fill="url(#paint1_linear_0_32)"/>
<path d="M16.0833 0.75V10.75H26.0833" stroke="#0F0F46" stroke-width="1.5" stroke-linejoin="round"/>
</g>
<g id="Vector_3">
<path d="M9.41667 17.4167H19.4167ZM9.41667 24.0833H19.4167Z" fill="url(#paint2_linear_0_32)"/>
<path d="M9.41667 17.4167H19.4167M9.41667 24.0833H19.4167" stroke="#0F0F46" stroke-width="1.5" stroke-linecap="round" stroke-linejoin="round"/>
</g>
</g>
<defs>
<filter id="filter0_d_0_32" x="-5.96046e-08" y="0" width="32.8333" height="41.5" filterUnits="userSpaceOnUse" color-interpolation-filters="sRGB">
<feFlood flood-opacity="0" result="BackgroundImageFix"/>
<feColorMatrix in="SourceAlpha" type="matrix" values="0 0 0 0 0 0 0 0 0 0 0 0 0 0 0 0 0 0 127 0" result="hardAlpha"/>
<feOffset dx="2" dy="6"/>
<feGaussianBlur stdDeviation="2"/>
<feComposite in2="hardAlpha" operator="out"/>
<feColorMatrix type="matrix" values="0 0 0 0 0 0 0 0 0 0 0 0 0 0 0 0 0 0 0.25 0"/>
<feBlend mode="normal" in2="BackgroundImageFix" result="effect1_dropShadow_0_32"/>
<feBlend mode="normal" in="SourceGraphic" in2="effect1_dropShadow_0_32" result="shape"/>
</filter>
<linearGradient id="paint0_linear_0_32" x1="5.57616" y1="4.54095" x2="22.511" y2="28.949" gradientUnits="userSpaceOnUse">
<stop offset="0.34378" stop-color="#D9F8A8"/>
<stop offset="1" stop-color="#16971F"/>
</linearGradient>
<linearGradient id="paint1_linear_0_32" x1="17.2945" y1="2.01365" x2="22.3317" y2="11.348" gradientUnits="userSpaceOnUse">
<stop offset="0.34378" stop-color="#D9F8A8"/>
<stop offset="1" stop-color="#16971F"/>
</linearGradient>
<linearGradient id="paint2_linear_0_32" x1="10.6279" y1="18.2591" x2="13.1873" y2="25.3734" gradientUnits="userSpaceOnUse">
<stop offset="0.34378" stop-color="#D9F8A8"/>
<stop offset="1" stop-color="#16971F"/>
</linearGradient>
</defs>
</svg>
